<svg width="21" height="21" viewBox="0 0 21 21" fill="none" xmlns="http://www.w3.org/2000/svg">
<path d="M21 10.4546L18.6709 7.79137L18.9955 4.2691L15.5495 3.48637L13.7455 0.431824L10.5 1.82546L7.25455 0.431824L5.45045 3.47682L2.00455 4.25001L2.32909 7.78182L0 10.4546L2.32909 13.1177L2.00455 16.6496L5.45045 17.4323L7.25455 20.4773L10.5 19.0741L13.7455 20.4677L15.5495 17.4227L18.9955 16.64L18.6709 13.1177L21 10.4546ZM7.99909 14.2823L5.72727 11.9914C5.355 11.6191 5.355 11.0177 5.72727 10.6455L5.79409 10.5786C6.16636 10.2064 6.77727 10.2064 7.14955 10.5786L8.68636 12.125L13.6023 7.19955C13.9745 6.82728 14.5855 6.82728 14.9577 7.19955L15.0245 7.26637C15.3968 7.63864 15.3968 8.24001 15.0245 8.61228L9.37364 14.2823C8.98227 14.6546 8.38091 14.6546 7.99909 14.2823Z" fill="#fff"/>
</svg>
