<svg width="19" height="19" viewBox="0 0 19 19" fill="none" xmlns="http://www.w3.org/2000/svg">
<path d="M5.69788 15.2C4.65327 15.2 3.80809 16.055 3.80809 17.1C3.80809 18.145 4.65327 19 5.69788 19C6.7425 19 7.59718 18.145 7.59718 17.1C7.59718 16.055 6.7425 15.2 5.69788 15.2ZM0 0.95C0 1.4725 0.427341 1.9 0.949647 1.9H1.89929L5.31803 9.1105L4.036 11.4285C3.34276 12.7015 4.25442 14.25 5.69788 14.25H16.144C16.6663 14.25 17.0937 13.8225 17.0937 13.3C17.0937 12.7775 16.6663 12.35 16.144 12.35H5.69788L6.7425 10.45H13.8174C14.5296 10.45 15.1564 10.0605 15.4793 9.4715L18.879 3.306C19.2304 2.679 18.7745 1.9 18.0528 1.9H3.99802L3.36175 0.5415C3.20981 0.209 2.86794 0 2.50707 0H0.949647C0.427341 0 0 0.4275 0 0.95ZM15.1944 15.2C14.1497 15.2 13.3046 16.055 13.3046 17.1C13.3046 18.145 14.1497 19 15.1944 19C16.239 19 17.0937 18.145 17.0937 17.1C17.0937 16.055 16.239 15.2 15.1944 15.2Z" fill="#fff"/>
</svg>
