<svg width="24" height="24" viewBox="0 0 24 24" fill="none" xmlns="http://www.w3.org/2000/svg">
<path d="M12 0C5.376 0 0 5.376 0 12C0 18.624 5.376 24 12 24C18.624 24 24 18.624 24 12C24 5.376 18.624 0 12 0ZM13.692 19.308V20.004C13.692 20.88 12.972 21.6 12.096 21.6H12.084C11.208 21.6 10.488 20.88 10.488 20.004V19.284C8.892 18.948 7.476 18.072 6.876 16.596C6.6 15.936 7.116 15.204 7.836 15.204H8.124C8.568 15.204 8.928 15.504 9.096 15.924C9.444 16.824 10.356 17.448 12.108 17.448C14.46 17.448 14.988 16.272 14.988 15.54C14.988 14.544 14.46 13.608 11.784 12.972C8.808 12.252 6.768 11.028 6.768 8.568C6.768 6.504 8.436 5.16 10.5 4.716V3.996C10.5 3.12 11.22 2.4 12.096 2.4H12.108C12.984 2.4 13.704 3.12 13.704 3.996V4.74C15.36 5.148 16.404 6.18 16.86 7.452C17.1 8.112 16.596 8.808 15.888 8.808H15.576C15.132 8.808 14.772 8.496 14.652 8.064C14.376 7.152 13.62 6.564 12.108 6.564C10.308 6.564 9.228 7.38 9.228 8.532C9.228 9.54 10.008 10.2 12.432 10.824C14.856 11.448 17.448 12.492 17.448 15.516C17.424 17.712 15.78 18.912 13.692 19.308Z" fill="white"/>
</svg>
