<svg width="80" height="72" viewBox="0 0 80 72" fill="none" xmlns="http://www.w3.org/2000/svg">
<path d="M68 64H4C1.8 64 0 65.8 0 68C0 70.2 1.8 72 4 72H68C70.2 72 72 70.2 72 68C72 65.8 70.2 64 68 64Z" fill="white"/>
<path d="M72 0H28V9.6L35.24 15.4C35.72 15.76 36 16.36 36 16.96V34C36 35.12 35.12 36 34 36H18C16.88 36 16 35.12 16 34V16.96C16 16.36 16.28 15.76 16.76 15.4L24 9.6V0H16C11.6 0 8 3.6 8 8V40C8 48.84 15.16 56 24 56H48C56.84 56 64 48.84 64 40V28H72C76.4 28 80 24.4 80 20V8C80 3.6 76.4 0 72 0ZM72 20H64V8H72V20Z" fill="white"/>
</svg>
