<svg width="79" height="71" viewBox="0 0 79 71" fill="none" xmlns="http://www.w3.org/2000/svg">
<path d="M39.895 71C38.7758 71 37.8213 70.6126 37.0312 69.8377C36.2412 69.0627 35.8463 68.1025 35.8463 66.9569C35.8463 66.4968 35.945 66.0201 36.1425 65.5271C36.34 65.034 36.6362 64.5903 37.0312 64.1958L55.3 45.9528L53.2262 43.8819L34.9575 62.125C34.5625 62.5194 34.1346 62.8153 33.6738 63.0125C33.2129 63.2097 32.7192 63.3083 32.1925 63.3083C31.0733 63.3083 30.1352 62.9303 29.3781 62.1743C28.621 61.4183 28.2425 60.4815 28.2425 59.3639C28.2425 58.7065 28.3413 58.1641 28.5388 57.7368C28.7362 57.3095 28.9996 56.9315 29.3288 56.6028L47.5975 38.3597L45.5238 36.2889L27.255 54.4333C26.86 54.8278 26.4321 55.1236 25.9713 55.3208C25.5104 55.5181 24.9838 55.6167 24.3913 55.6167C23.3379 55.6167 22.4163 55.2222 21.6263 54.4333C20.8363 53.6444 20.4412 52.7241 20.4412 51.6722C20.4412 51.1463 20.54 50.6532 20.7375 50.1931C20.935 49.7329 21.2313 49.3056 21.6263 48.9111L39.895 30.6681L37.8213 28.5972L19.6513 46.8403C19.3221 47.169 18.9271 47.4319 18.4663 47.6292C18.0054 47.8264 17.4458 47.925 16.7875 47.925C15.6683 47.925 14.7302 47.5564 13.9731 46.8193C13.216 46.0822 12.8375 45.1688 12.8375 44.0792C12.8375 43.5532 12.9363 43.0602 13.1337 42.6C13.3313 42.1398 13.6275 41.7125 14.0225 41.3181L36.0438 19.3278L48.585 31.8514C49.3092 32.5745 50.1156 33.1826 51.0044 33.6757C51.8931 34.1688 52.9629 34.4153 54.2138 34.4153C56.3204 34.4153 58.0979 33.7414 59.5463 32.3937C60.9946 31.0461 61.7188 29.2218 61.7188 26.9208C61.7188 26.0005 61.5377 25.0965 61.1756 24.209C60.8135 23.3215 60.2046 22.4505 59.3488 21.5958L41.6725 3.94444L42.265 3.25417C43.3842 2.20231 44.635 1.39699 46.0175 0.838194C47.4 0.279398 48.7825 0 50.165 0C51.8767 0 53.4567 0.279398 54.905 0.838194C56.3533 1.39699 57.67 2.26806 58.855 3.45139L75.5438 20.2153C76.7288 21.3986 77.601 22.7134 78.1606 24.1597C78.7202 25.606 79 27.2824 79 29.1889C79 30.5037 78.7038 31.835 78.1113 33.1826C77.5188 34.5303 76.6629 35.763 75.5438 36.8806L42.66 69.8167C42.1333 70.3426 41.6725 70.6713 41.2775 70.8028C40.8825 70.9343 40.4217 71 39.895 71ZM8.78875 42.2056L3.45625 36.8806C2.33708 35.8287 1.48125 34.5796 0.88875 33.1333C0.29625 31.687 0 30.175 0 28.5972C0 26.888 0.329167 25.3102 0.9875 23.8639C1.64583 22.4176 2.46875 21.2014 3.45625 20.2153L20.145 3.45139C21.1983 2.39954 22.4492 1.56134 23.8975 0.936806C25.3458 0.312268 26.7613 0 28.1438 0C29.9213 0 31.5013 0.246528 32.8838 0.739583C34.2663 1.23264 35.6158 2.13657 36.9325 3.45139L57.1763 23.6667C57.7688 24.2583 58.1802 24.8171 58.4106 25.3431C58.641 25.869 58.7563 26.3949 58.7563 26.9208C58.7563 28.2356 58.3283 29.3204 57.4725 30.175C56.6167 31.0296 55.5304 31.4569 54.2138 31.4569C53.6213 31.4569 53.0123 31.309 52.3869 31.0132C51.7615 30.7174 51.1525 30.2736 50.56 29.6819L35.945 15.0875L8.78875 42.2056Z" fill="white"/>
</svg>
