<svg width="72" height="88" viewBox="0 0 72 88" fill="none" xmlns="http://www.w3.org/2000/svg">
<path d="M33.6 0.0780087C14.48 1.31801 0 18.078 0 37.238V63.998C0 70.638 5.36 75.998 12 75.998H16C20.4 75.998 24 72.398 24 67.998V51.998C24 47.598 20.4 43.998 16 43.998H8V37.158C8 21.798 19.84 8.43801 35.16 7.99801C51.04 7.55801 64 20.238 64 35.998V43.998H56C51.6 43.998 48 47.598 48 51.998V67.998C48 72.398 51.6 75.998 56 75.998H64V79.998H40C37.8 79.998 36 81.798 36 83.998C36 86.198 37.8 87.998 40 87.998H60C66.64 87.998 72 82.638 72 75.998V35.998C72 15.318 54.56 -1.28199 33.6 0.0780087Z" fill="white"/>
</svg>
