<svg width="38" height="38" viewBox="0 0 38 38" fill="none" xmlns="http://www.w3.org/2000/svg">
<path d="M27.5131 0H10.4864C4.7042 0 0 4.70443 0 10.4866V27.5134C0 33.2958 4.7042 38 10.4864 38H27.5131C33.2958 38 38 33.2956 38 27.5134V10.4866C38.0002 4.70443 33.2958 0 27.5131 0ZM34.6287 27.5134C34.6287 31.4367 31.4367 34.6285 27.5134 34.6285H10.4864C6.56327 34.6287 3.37154 31.4367 3.37154 27.5134V10.4866C3.37154 6.5635 6.56327 3.37154 10.4864 3.37154H27.5131C31.4365 3.37154 34.6285 6.5635 34.6285 10.4866V27.5134H34.6287Z" fill="#1D77FF"/>
<path d="M19 9.20874C13.6008 9.20874 9.20836 13.6012 9.20836 19.0004C9.20836 24.3993 13.6008 28.7916 19 28.7916C24.3992 28.7916 28.7916 24.3993 28.7916 19.0004C28.7916 13.6012 24.3992 9.20874 19 9.20874ZM19 25.4198C15.4601 25.4198 12.5799 22.5401 12.5799 19.0002C12.5799 15.46 15.4599 12.5801 19 12.5801C22.5401 12.5801 25.4201 15.46 25.4201 19.0002C25.4201 22.5401 22.5399 25.4198 19 25.4198Z" fill="#1D77FF"/>
<path d="M29.2023 6.34985C28.5527 6.34985 27.9146 6.61283 27.4558 7.07361C26.9948 7.53214 26.7298 8.17049 26.7298 8.82232C26.7298 9.47213 26.9951 10.1102 27.4558 10.571C27.9144 11.0296 28.5527 11.2948 29.2023 11.2948C29.8541 11.2948 30.4902 11.0296 30.951 10.571C31.4118 10.1102 31.6748 9.4719 31.6748 8.82232C31.6748 8.17049 31.4118 7.53214 30.951 7.07361C30.4925 6.61283 29.8541 6.34985 29.2023 6.34985Z" fill="#1D77FF"/>
</svg>
