<svg width="80" height="80" viewBox="0 0 80 80" fill="none" xmlns="http://www.w3.org/2000/svg">
<path d="M40 0C17.92 0 0 17.92 0 40C0 62.08 17.92 80 40 80C62.08 80 80 62.08 80 40C80 17.92 62.08 0 40 0ZM45.64 64.36V66.68C45.64 69.6 43.24 72 40.32 72H40.28C37.36 72 34.96 69.6 34.96 66.68V64.28C29.64 63.16 24.92 60.24 22.92 55.32C22 53.12 23.72 50.68 26.12 50.68H27.08C28.56 50.68 29.76 51.68 30.32 53.08C31.48 56.08 34.52 58.16 40.36 58.16C48.2 58.16 49.96 54.24 49.96 51.8C49.96 48.48 48.2 45.36 39.28 43.24C29.36 40.84 22.56 36.76 22.56 28.56C22.56 21.68 28.12 17.2 35 15.72V13.32C35 10.4 37.4 8 40.32 8H40.36C43.28 8 45.68 10.4 45.68 13.32V15.8C51.2 17.16 54.68 20.6 56.2 24.84C57 27.04 55.32 29.36 52.96 29.36H51.92C50.44 29.36 49.24 28.32 48.84 26.88C47.92 23.84 45.4 21.88 40.36 21.88C34.36 21.88 30.76 24.6 30.76 28.44C30.76 31.8 33.36 34 41.44 36.08C49.52 38.16 58.16 41.64 58.16 51.72C58.08 59.04 52.6 63.04 45.64 64.36Z" fill="white"/>
</svg>
