<svg width="20" height="20" viewBox="0 0 20 20" fill="none" xmlns="http://www.w3.org/2000/svg">
<path d="M17.8891 19.3252C15.8087 19.3252 13.7437 18.8156 11.6942 17.7962C9.6447 16.7768 7.8005 15.4509 6.1616 13.8185C4.5227 12.186 3.19383 10.3421 2.17498 8.28664C1.15614 6.23119 0.646729 4.16796 0.646729 2.09696C0.646729 1.68401 0.787512 1.33675 1.06908 1.05516C1.35066 0.773595 1.69793 0.632812 2.11088 0.632812H5.61088C5.99788 0.632812 6.3229 0.742596 6.58593 0.962163C6.84895 1.18173 7.02429 1.4955 7.11198 1.90346L7.78698 4.82739C7.84858 5.18319 7.84307 5.49519 7.77045 5.76339C7.69784 6.0316 7.55515 6.25946 7.3424 6.44696L4.78588 8.88719C5.66269 10.3053 6.62641 11.5353 7.67703 12.5772C8.72764 13.6192 9.9103 14.5022 11.225 15.2263L13.6707 12.7339C13.9127 12.4846 14.1774 12.313 14.4647 12.2192C14.752 12.1254 15.0605 12.1176 15.3902 12.1958L18.0685 12.8176C18.4744 12.9209 18.79 13.1087 19.0153 13.381C19.2406 13.6532 19.3533 13.9933 19.3533 14.4013V17.847C19.3533 18.2693 19.2125 18.6213 18.9309 18.9029C18.6493 19.1844 18.3021 19.3252 17.8891 19.3252ZM3.79565 7.11651L5.80653 5.16544L5.24565 2.61326H2.65545C2.6366 3.21646 2.71991 3.88166 2.90538 4.60886C3.09085 5.33605 3.3876 6.17193 3.79565 7.11651ZM17.3587 17.3165V14.698L14.9957 14.1872L13.0489 16.2198C13.6851 16.527 14.3821 16.7759 15.1397 16.9665C15.8973 17.1571 16.637 17.2738 17.3587 17.3165Z" fill="#1D77FF"/>
</svg>
