<svg width="42" height="42" viewBox="0 0 42 42" fill="none" xmlns="http://www.w3.org/2000/svg">
<path d="M21.1761 32.6501C21.7253 32.6501 22.1952 32.4548 22.5858 32.0643C22.9764 31.6737 23.1717 31.2012 23.1717 30.6468C23.1717 30.0924 22.9764 29.6225 22.5858 29.237C22.1952 28.8515 21.7233 28.6588 21.17 28.6588C20.6168 28.6588 20.1468 28.8512 19.7603 29.2361C19.3737 29.6209 19.1804 30.0931 19.1804 30.6528C19.1804 31.2032 19.3742 31.6737 19.7619 32.0643C20.1495 32.4548 20.6208 32.6501 21.1761 32.6501ZM19.3304 25.3501H22.4598C22.4598 24.4994 22.5681 23.7157 22.7847 22.999C23.0014 22.2823 23.6645 21.4653 24.7739 20.548C25.7913 19.7132 26.5146 18.8743 26.944 18.0313C27.3733 17.1883 27.588 16.2601 27.588 15.2465C27.588 13.4569 27.0198 12.0227 25.8834 10.9441C24.7469 9.86551 23.2271 9.32621 21.3239 9.32621C19.6666 9.32621 18.1991 9.75048 16.9212 10.599C15.6433 11.4476 14.713 12.6051 14.1304 14.0715L16.9717 15.1414C17.3463 14.2001 17.8943 13.4731 18.6156 12.9605C19.3368 12.4478 20.1737 12.1914 21.1261 12.1914C22.1837 12.1914 23.0475 12.4844 23.7176 13.0704C24.3877 13.6564 24.7227 14.4143 24.7227 15.3442C24.7227 16.0481 24.5121 16.7211 24.0907 17.3632C23.6693 18.0052 23.0619 18.6563 22.2684 19.3164C21.2844 20.1671 20.5487 21.0297 20.0613 21.9042C19.574 22.7787 19.3304 23.9273 19.3304 25.3501ZM21.0016 41.299C18.2193 41.299 15.5936 40.7677 13.1245 39.7051C10.6554 38.6425 8.4989 37.1892 6.6549 35.3452C4.8109 33.5012 3.35758 31.3452 2.29495 28.8772C1.23235 26.4092 0.70105 23.784 0.70105 21.0018C0.70105 18.1862 1.23235 15.5438 2.29495 13.0747C3.35758 10.6056 4.81027 8.45718 6.653 6.62941C8.49577 4.80168 10.6515 3.35471 13.1201 2.28851C15.5886 1.22231 18.2144 0.689209 20.9973 0.689209C23.8136 0.689209 26.4567 1.22201 28.9268 2.28761C31.3968 3.35318 33.5454 4.79931 35.3726 6.62601C37.1997 8.45271 38.6462 10.6008 39.712 13.0702C40.7779 15.5396 41.3109 18.1829 41.3109 21.0001C41.3109 23.7835 40.7777 26.4096 39.7115 28.8786C38.6453 31.3476 37.1984 33.5036 35.3706 35.3466C33.5429 37.1896 31.395 38.6425 28.927 39.7051C26.459 40.7677 23.8172 41.299 21.0016 41.299Z" fill="#FCFCFC"/>
</svg>
