<svg width="21" height="21" viewBox="0 0 21 21" fill="none" xmlns="http://www.w3.org/2000/svg">
<path d="M6.3 3.78377e-05C4.57278 3.78377e-05 3.15 1.42282 3.15 3.15003V14.7H1.05C0.771531 14.7 0.504476 14.8107 0.307569 15.0076C0.110661 15.2045 2.78427e-05 15.4715 0 15.75V17.85C0 19.5772 1.42278 21 3.15 21H12.6H13.65C15.3772 21 16.8 19.5772 16.8 17.85V6.30003H19.95C20.2285 6.3 20.4955 6.18936 20.6924 5.99246C20.8893 5.79555 21 5.5285 21 5.25003V3.15003C21 1.49992 19.6976 0.141823 18.0756 0.0225964C18.0014 0.00695801 17.9258 -0.000605556 17.85 3.78377e-05H6.3ZM17.85 2.10003C18.4433 2.10003 18.9 2.55675 18.9 3.15003V4.20003H16.8V3.15003C16.8 2.55675 17.2567 2.10003 17.85 2.10003ZM2.1 16.8H4.02363C4.13702 16.8187 4.25272 16.8187 4.36611 16.8H10.4897L10.5 17.8746V17.8787C10.5049 18.2384 10.5853 18.5784 10.703 18.9H3.15C2.55672 18.9 2.1 18.4433 2.1 17.85V16.8Z" fill="#fff"/>
</svg>
