<svg width="80" height="64" viewBox="0 0 80 64" fill="none" xmlns="http://www.w3.org/2000/svg">
<path d="M78.72 22.84L63.84 55.6C62.92 57.56 60 56.92 60 54.76V28H54C52.88 28 52 27.12 52 26V2C52 0.88 52.88 0 54 0H77.04C78.44 0 79.44 1.44 78.88 2.76L72 20H76.88C78.36 20 79.32 21.52 78.72 22.84ZM52 36V64H8C3.6 64 0 60.4 0 56V44C0 39.6 3.6 36 8 36H52ZM17 50C17 48.36 15.64 47 14 47C12.36 47 11 48.36 11 50C11 51.64 12.36 53 14 53C15.64 53 17 51.64 17 50ZM44 0V28H8C3.6 28 0 24.4 0 20V8C0 3.6 3.6 0 8 0H44ZM17 14C17 12.36 15.64 11 14 11C12.36 11 11 12.36 11 14C11 15.64 12.36 17 14 17C15.64 17 17 15.64 17 14Z" fill="white"/>
</svg>
