<svg width="17" height="22" viewBox="0 0 17 22" fill="none" xmlns="http://www.w3.org/2000/svg">
<path d="M7.93333 0.0195026C3.41889 0.32951 0 4.51961 0 9.30971V15.9999C0 17.6599 1.26556 18.9999 2.83333 18.9999H3.77778C4.81667 18.9999 5.66667 18.0999 5.66667 16.9999V12.9998C5.66667 11.8998 4.81667 10.9998 3.77778 10.9998H1.88889V9.28971C1.88889 5.44963 4.68444 2.10955 8.30167 1.99955C12.0511 1.88954 15.1111 5.05962 15.1111 8.99971V10.9998H13.2222C12.1833 10.9998 11.3333 11.8998 11.3333 12.9998V16.9999C11.3333 18.0999 12.1833 18.9999 13.2222 18.9999H15.1111V20H9.44444C8.925 20 8.5 20.45 8.5 21C8.5 21.55 8.925 22 9.44444 22H14.1667C15.7344 22 17 20.66 17 18.9999V8.99971C17 3.82959 12.8822 -0.320505 7.93333 0.0195026Z" fill="black"/>
</svg>
