<svg width="43" height="36" viewBox="0 0 43 36" fill="none" xmlns="http://www.w3.org/2000/svg">
<path d="M5.58686 20.7038C5.32602 20.987 5.23416 21.3876 5.34673 21.7565L5.34676 21.7566C6.49578 25.5177 9.15654 27.0516 11.1319 27.6735C9.29899 28.8912 7.14052 29.3252 5.37221 29.4421C4.4221 29.505 3.59106 29.4759 2.99413 29.4304C2.69582 29.4076 2.4564 29.3808 2.29032 29.3594C2.20729 29.3487 2.14264 29.3394 2.0982 29.3326C2.05246 29.3257 2.03004 29.3217 2.03062 29.3218L2.0276 29.3213C1.53663 29.235 1.04449 29.4935 0.841973 29.9539L0.841928 29.954C0.640405 30.4126 0.778094 30.9508 1.17739 31.2551C5.4403 34.5086 10.5283 35.2232 14.184 35.2232C16.9517 35.2232 18.9163 34.8134 19.1143 34.7706L19.1144 34.7706L19.1192 34.7695C28.3545 32.5808 33.1338 27.2586 35.5914 22.118C37.9843 17.1126 38.1725 12.2895 38.1625 10.7178C39.8365 9.15374 40.8183 8.06041 41.395 7.3133C41.979 6.5568 42.1567 6.14382 42.2111 5.94656L42.2112 5.94628C42.3344 5.49756 42.1581 5.02017 41.7731 4.75866L41.7728 4.75842C41.3874 4.4976 40.8781 4.51052 40.5069 4.79234C40.4 4.87323 40.2603 4.952 40.0943 5.0276C41.0685 3.65203 41.1079 2.7161 41.0891 2.423L41.0891 2.42292C41.0636 2.02752 40.8248 1.67756 40.4669 1.50889L40.4659 1.50844C40.1071 1.34123 39.686 1.38052 39.3656 1.61324L39.3656 1.61327C37.7201 2.80887 36.0835 3.09925 35.06 3.1442C33.396 1.59744 31.2541 0.75 28.9798 0.75C24.0122 0.75 19.9767 4.84363 19.9767 9.86872C19.9767 10.1779 19.9922 10.4866 20.0229 10.7936C16.0911 10.6397 12.5199 8.71344 9.8909 6.77388C8.54729 5.78262 7.45641 4.79279 6.69737 4.04579C6.31798 3.67241 6.02183 3.36004 5.81883 3.13896C5.71734 3.02842 5.63916 2.94074 5.58554 2.8797C5.55872 2.84918 5.53807 2.82534 5.52372 2.80865L5.507 2.78911L5.50234 2.78361C5.50113 2.78218 5.50062 2.78157 5.50064 2.78159L5.5004 2.78131C5.27461 2.51075 4.92974 2.36122 4.57073 2.39511C4.21779 2.42619 3.90153 2.62765 3.72441 2.93469L3.72437 2.93476C1.59766 6.62448 2.52619 9.93136 3.77891 12.1439C3.56232 12.1102 3.33642 12.142 3.13237 12.2425L3.13226 12.2425C2.76626 12.4229 2.53225 12.7922 2.52539 13.2L2.52538 13.2001C2.46507 16.9028 4.08466 19.1828 5.77309 20.5425C5.7059 20.5884 5.64333 20.6423 5.58686 20.7038ZM5.58686 20.7038C5.58693 20.7037 5.58699 20.7036 5.58706 20.7036L5.77091 20.873L5.58679 20.7039C5.58682 20.7038 5.58684 20.7038 5.58686 20.7038ZM14.1677 27.5693C14.3875 27.3229 14.4398 26.9421 14.3046 26.641C14.1693 26.3407 13.869 26.1197 13.5398 26.1197H13.5341C13.3183 26.1197 9.68136 26.0924 7.81048 22.6665L36.2293 10.3112C36.2322 10.3561 36.5125 14.8899 34.4921 19.9418C31.7928 26.6917 26.4712 31.0506 18.6921 32.8941C18.6109 32.9112 11.7787 34.3263 5.58539 31.6209C5.76126 31.6089 5.94082 31.594 6.12356 31.5759M14.1677 27.5693C11.7055 30.3335 8.27308 31.1773 5.62942 31.3672C5.7937 31.4397 5.95846 31.5092 6.12356 31.5759M14.1677 27.5693L14.3544 27.7356C14.3544 27.7357 14.3543 27.7357 14.3543 27.7358M14.1677 27.5693L14.3543 27.7358M6.12356 31.5759C12.0731 33.9787 18.4669 32.6855 18.6378 32.6501L13.5341 25.8697H13.5341H13.5341H13.5342H13.5342H13.5342H13.5342H13.5343H13.5343H13.5343H13.5344H13.5344H13.5344H13.5344H13.5345H13.5345H13.5345H13.5345H13.5346H13.5346H13.5346H13.5347H13.5347H13.5347H13.5347H13.5348H13.5348H13.5348H13.5348H13.5349H13.5349H13.5349H13.5349H13.535H13.535H13.535H13.535H13.5351H13.5351H13.5351H13.5352H13.5352H13.5352H13.5352H13.5353H13.5353H13.5353H13.5353H13.5354H13.5354H13.5354H13.5354H13.5355H13.5355H13.5355H13.5355H13.5356H13.5356H13.5356H13.5356H13.5357H13.5357H13.5357H13.5357H13.5358H13.5358H13.5358H13.5358H13.5358H13.5359H13.5359H13.5359H13.5359H13.536H13.536H13.536H13.536H13.5361H13.5361H13.5361H13.5361H13.5362H13.5362H13.5362H13.5362H13.5363H13.5363H13.5363H13.5363H13.5363H13.5364H13.5364H13.5364H13.5364H13.5365H13.5365H13.5365H13.5365H13.5366H13.5366H13.5366H13.5366H13.5366H13.5367H13.5367H13.5367H13.5367H13.5368H13.5368H13.5368H13.5368H13.5368H13.5369H13.5369H13.5369H13.5369H13.537H13.537H13.537H13.537H13.537H13.5371H13.5371H13.5371H13.5371H13.5372H13.5372H13.5372H13.5372H13.5372H13.5373H13.5373H13.5373H13.5373H13.5373H13.5374H13.5374H13.5374H13.5374H13.5375H13.5375H13.5375H13.5375H13.5375H13.5376H13.5376H13.5376H13.5376H13.5376H13.5377H13.5377H13.5377H13.5377H13.5377H13.5378H13.5378H13.5378H13.5378H13.5379H13.5379H13.5379H13.5379H13.5379H13.538H13.538H13.538H13.538H13.538H13.5381H13.5381H13.5381H13.5381H13.5381H13.5382H13.5382H13.5382H13.5382H13.5382H13.5383H13.5383H13.5383H13.5383H13.5383H13.5384H13.5384H13.5384H13.5384H13.5384H13.5385H13.5385H13.5385H13.5385H13.5385H13.5386H13.5386H13.5386H13.5386H13.5386H13.5387H13.5387H13.5387H13.5387H13.5387H13.5388H13.5388H13.5388H13.5388H13.5388H13.5388H13.5389H13.5389H13.5389H13.5389H13.5389H13.539H13.539H13.539H13.539H13.539H13.5391H13.5391H13.5391H13.5391H13.5391H13.5392H13.5392H13.5392H13.5392H13.5392H13.5393H13.5393H13.5393H13.5393H13.5393H13.5393H13.5394H13.5394H13.5394H13.5394H13.5394H13.5395H13.5395H13.5395H13.5395H13.5395H13.5396H13.5396H13.5396H13.5396H13.5396H13.5396H13.5397H13.5397H13.5397H13.5397H13.5397H13.5398C13.9809 25.8697 14.3627 26.1613 14.5325 26.5383L14.5326 26.5386C14.7067 26.9261 14.6423 27.4129 14.3543 27.7358M6.12356 31.5759C8.72888 31.3178 11.978 30.4034 14.3543 27.7358M38.0442 7.80549C37.5793 8.27655 37.0143 8.82353 36.328 9.45464L36.4973 9.63866L38.0442 7.80549ZM38.0442 7.80549C37.4275 7.90192 36.9591 7.9431 36.831 7.95332C36.3575 7.99594 35.9054 7.71189 35.7309 7.26629L35.7309 7.26619C35.5563 6.8199 35.6949 6.31165 36.0715 6.01557L36.0716 6.0155C36.537 5.65002 36.9265 5.30765 37.2524 4.99117C36.1654 5.27814 35.2283 5.32941 34.6062 5.32348L34.6038 5.32346C34.3169 5.31805 34.0431 5.20007 33.8428 4.99341C32.5467 3.65757 30.8205 2.92355 28.9797 2.92355C25.2177 2.92355 22.1501 6.03549 22.1501 9.8688C22.1501 10.4537 22.2222 11.037 22.3643 11.6029L38.0442 7.80549ZM9.88336 20.2596C9.69324 20.2194 5.69979 19.3251 4.85433 15.0708C5.47543 15.2808 6.20195 15.4153 6.93501 15.3055C7.35492 15.2428 7.69807 14.941 7.81666 14.5347L7.8167 14.5345C7.93519 14.1276 7.80546 13.6888 7.48586 13.4105L7.48565 13.4103C7.40107 13.3369 6.33874 12.3938 5.53347 10.8886C4.77324 9.46762 4.24977 7.56269 4.97376 5.41149C6.16988 6.62271 8.24131 8.5068 10.9113 10.0915C13.8009 11.8065 17.4077 13.1802 21.3731 12.9528L21.3731 12.9528C21.6966 12.9342 21.9947 12.7718 22.1864 12.511L22.1865 12.5109C22.3781 12.2499 22.4435 11.9172 22.3644 11.6031L9.88336 20.2596Z" fill="#1D77FF" stroke="#1D77FF" stroke-width="0.5"/>
</svg>
