<svg width="644" height="329" viewBox="0 0 644 329" fill="none" xmlns="http://www.w3.org/2000/svg">
<g clip-path="url(#clip0_19_197)">
<path d="M615.415 181.889L613.397 197.945L608.391 237.822H507.807C508.593 228.885 509.667 216.02 510.814 202.132C510.927 200.745 511.045 199.349 511.158 197.945C514.035 163.034 517.182 123.529 517.182 123.529L530.406 125.991L556.062 130.759L566.516 132.701L594.511 137.911C608.47 140.503 618.071 160.702 615.415 181.889Z" fill="#F2F2F2"/>
<path d="M539.333 58.927L551.702 80.5604L527.928 97.3993L517.787 70.8078L539.333 58.927Z" fill="#FFB6B6"/>
<path d="M523.586 79.3931C540.509 79.3931 554.228 65.6814 554.228 48.7673C554.228 31.8531 540.509 18.1415 523.586 18.1415C506.663 18.1415 492.943 31.8531 492.943 48.7673C492.943 65.6814 506.663 79.3931 523.586 79.3931Z" fill="#FFB6B6"/>
<path d="M521.386 55.614C518.953 51.9129 519.908 49.9772 517.871 48.617C517.871 48.617 517.051 48.0697 511.184 47.7577C509.871 38.3095 508.231 37.1638 508.231 37.1637C506.342 35.8432 503.537 36.2723 501.793 37.0799C498.103 38.7881 498.531 42.4779 496.046 43.184C492.614 44.1593 486.37 38.6607 485.755 32.3658C485.253 27.231 488.563 22.2438 489.876 22.5076C491.178 22.7692 494.294 18.7926 495.977 18.854C497.126 18.8958 501.821 16.8561 503.084 17.0156C504.464 17.1898 509.012 19.562 509.202 19.02C510.519 15.2538 510.132 14.2088 511.249 13.1314C513.229 11.2221 516.469 12.5517 521.551 13.2654C532.008 14.734 533.833 11.2881 539.191 13.6238C541.898 14.8036 544.163 17.9856 548.583 24.3015C554.764 33.1341 557.854 37.5504 557.874 42.7014C557.894 47.9545 555.349 47.6211 554.231 55.3978C552.987 64.0547 555.631 68.0131 552.742 70.8255C550.51 72.9992 545.972 73.5151 543.588 71.6074C539.506 68.3413 544.848 60.46 540.331 54.702C537.558 51.1675 531.981 49.5948 529.427 51.342C526.538 53.3175 528.129 59.1159 526.098 59.6658C524.359 60.1367 521.81 56.2589 521.386 55.614Z" fill="#2F2E41"/>
<path d="M592.766 176.235C591.911 190.841 588.516 195.452 587.327 212.702C587.068 216.489 586.912 220.885 586.912 226.127C586.912 227.463 586.919 228.756 586.919 230.018C586.919 232.706 586.867 235.246 586.555 237.822C586.317 239.879 585.909 241.951 585.233 244.134H519.236C519.229 244.119 519.229 244.104 519.221 244.089C518.835 242.411 518.59 240.807 518.404 239.27C518.344 238.78 518.292 238.298 518.248 237.822C518.188 237.265 518.136 236.716 518.085 236.174C517.884 234.013 517.683 231.971 517.207 230.018C516.569 227.322 515.409 224.783 513.032 222.333C512.059 221.33 511.086 220.551 510.135 219.868C509.949 219.741 509.771 219.615 509.585 219.489C506.955 217.684 504.466 216.385 502.311 212.702C502.274 212.65 502.245 212.59 502.215 212.538C501.843 211.892 500.878 210.199 500.179 207.942C499.443 205.596 498.998 202.647 499.8 199.633C501.71 192.49 508.782 191.777 514.563 184.559C515.187 183.78 515.803 182.918 516.39 181.96C519.005 177.713 519.711 173.97 520.543 169.522C520.677 168.802 520.796 168.089 520.892 167.399C520.967 166.879 521.034 166.367 521.086 165.861C521.546 161.622 521.323 157.968 520.781 154.701C519.013 144.001 513.797 137.377 517.482 127.776C518.642 124.762 520.284 122.497 521.94 120.559C525.447 116.452 529.05 113.787 528.426 108.485C527.794 103.138 523.738 102.403 523.285 97.7325C523.054 95.3714 523.827 92.8838 525.276 90.4408V90.4335C529.912 82.5697 541.488 75.3298 548.842 75.56C550.202 75.5974 551.406 75.9016 552.408 76.4882C556.042 78.6267 554.526 83.2973 560.091 89.8469C564.229 94.7104 568.909 96.656 570.686 97.5766C577.721 101.245 583.442 112.064 587.327 125.898C587.357 126.002 587.387 126.105 587.417 126.217C589.817 134.882 591.511 144.721 592.35 154.701C592.706 158.926 592.915 163.174 592.959 167.376C592.997 170.733 592.922 173.644 592.766 176.235Z" fill="#2B4CFF"/>
<path d="M543.345 226.276L542 230.018L541.153 232.364L539.191 237.822L536.918 244.134H522.304L524.756 237.822L525.893 234.882L527.78 230.018L530.945 221.85L543.345 226.276Z" fill="#FFB6B6"/>
<path d="M587.558 124.62C587.521 125.103 587.469 125.638 587.416 126.217C586.838 132.113 585.47 142.664 583.472 154.701C582.417 161.05 581.183 167.815 579.794 174.535C576.808 189.036 573.093 203.316 568.895 212.702C568.145 214.395 567.372 215.925 566.584 217.276C565.983 218.308 565.351 219.325 564.69 220.328C562.55 223.617 560.15 226.736 557.661 229.647C557.565 229.773 557.453 229.892 557.342 230.018C556.941 230.493 556.524 230.961 556.109 231.429C554.073 233.723 551.993 235.862 549.979 237.822C547.528 240.213 545.165 242.33 543.047 244.134H519.317L519.221 244.089L515.803 242.574C515.803 242.574 516.776 241.431 518.404 239.27C518.738 238.832 519.094 238.349 519.481 237.822C519.956 237.176 520.469 236.463 521.019 235.691C522.163 234.072 523.463 232.171 524.86 230.018C527.564 225.852 530.647 220.729 533.761 214.796C534.118 214.105 534.481 213.407 534.845 212.702C534.852 212.679 534.868 212.657 534.875 212.635C535.492 211.432 536.101 210.192 536.71 208.929C541.874 198.192 543.352 189.282 543.776 186.393C544.37 182.309 545.194 176.599 544.972 170.317C544.823 166.174 544.221 161.792 542.788 157.441V157.434C542.49 156.52 542.156 155.607 541.777 154.701C541.101 153.075 540.298 151.471 539.347 149.889C535.15 142.924 531.74 142.635 529.028 135.046C528.225 132.796 526.405 127.717 526.962 122.356V122.348C527.03 121.687 527.141 121.019 527.289 120.351V120.343C527.326 120.158 527.379 119.965 527.431 119.779C527.854 118.138 528.553 116.512 529.615 114.967C531.688 111.967 534.518 110.185 537.052 109.123L537.06 109.116C539.986 107.898 542.513 107.638 543.003 107.594C553.857 106.629 562.275 115.747 566.874 120.729C568.65 122.653 570.277 124.264 571.763 125.578C583.33 135.9 586.503 129.306 587.327 125.898C587.453 125.37 587.521 124.918 587.558 124.62Z" fill="#2B4CFF"/>
<path d="M587.595 124.234C587.595 124.271 587.588 124.398 587.558 124.606C587.572 124.494 587.58 124.383 587.588 124.279C587.588 124.257 587.588 124.242 587.595 124.234Z" fill="#2B4CFF"/>
<path d="M528.59 280.92H130.329C126.629 280.92 123.613 283.927 123.613 287.625C123.613 291.33 126.629 294.338 130.329 294.338H528.59C532.289 294.338 535.299 291.33 535.299 287.625C535.299 283.927 532.289 280.92 528.59 280.92Z" fill="#E6E6E6"/>
<path d="M440.208 315.582H218.703C215.004 315.582 211.995 318.589 211.995 322.287C211.995 325.985 215.004 329 218.703 329H440.208C443.908 329 446.924 325.985 446.924 322.287C446.924 318.589 443.908 315.582 440.208 315.582Z" fill="#E6E6E6"/>
<path d="M174.646 60.3506L199.745 49.7932L210.511 71.851L184.135 82.6109L174.646 60.3506Z" fill="#FFB6B6"/>
<path opacity="0.1" d="M174.646 60.3506L199.745 49.7932L210.511 71.851L184.135 82.6109L174.646 60.3506Z" fill="black"/>
<path d="M178.214 51.9452L202.975 80.4589C202.975 80.4589 185.75 134.796 168.525 139.638C151.3 144.48 119.541 168.152 119.541 168.152L79.7074 142.328L99.0857 113.815C99.0857 113.815 145.917 49.7932 158.297 49.7932C170.678 49.7932 178.214 51.9452 178.214 51.9452Z" fill="#2B4CFF"/>
<path d="M144.759 237.822H87.1196L83.4754 232.954L68.5971 213.075L65.1736 208.502C65.1736 208.502 52.2547 184.83 54.9461 163.31C57.6376 141.79 85.6285 136.948 85.6285 136.948H86.7805L121.048 167.044L119.002 195.052L129.854 213.075L144.759 237.822Z" fill="#2F2E41"/>
<path d="M98.9242 237.822H83.4754V214.958L98.9242 237.822Z" fill="#2F2E41"/>
<path d="M432.135 203.111L430.213 213.075L425.444 237.822H329.634C330.382 232.276 331.405 224.292 332.498 215.673C332.606 214.812 332.719 213.946 332.826 213.075C335.566 191.41 338.564 166.893 338.564 166.893L351.16 168.421L375.599 171.38L385.557 172.585L412.224 175.819C425.519 177.427 434.665 189.962 432.135 203.111Z" fill="#F2F2F2"/>
<path d="M567.724 237.822H515.758C516.549 236.892 516.996 236.354 516.996 236.354L532.574 233.782L564.672 228.488C564.672 228.488 566.136 232.27 567.724 237.822Z" fill="#2F2E41"/>
<path d="M347.298 71.1113L369.897 103.054L330.476 104.231L326.245 74.212L347.298 71.1113Z" fill="#A0616A"/>
<path opacity="0.1" d="M347.298 71.1113L369.897 103.054L330.476 104.231L326.245 74.212L347.298 71.1113Z" fill="black"/>
<path d="M235.848 137.295C232.948 128.934 226.281 123.653 220.958 125.498C215.635 127.344 213.672 135.616 216.573 143.979C217.687 147.335 219.588 150.377 222.119 152.848L234.853 188.117L251.285 181.792L236.987 147.695C237.444 144.187 237.053 140.621 235.848 137.295Z" fill="#A0616A"/>
<path d="M388.823 121.018L388.792 153.572L385.761 165.597L379.528 190.328L374.99 213.075L371.61 230.022L370.404 236.074C369.494 236.682 368.59 237.263 367.686 237.822H288.95C284.477 235.138 281.974 233.05 281.974 233.05C281.974 233.05 283.212 231.888 284.628 230.022C287.018 226.869 289.909 221.704 288.138 216.771C287.766 215.738 287.669 214.479 287.782 213.075C288.504 203.81 298.225 188.144 298.225 188.144L296.212 164.892L295.329 154.702L301.553 105.018L321.841 93.2307L325.344 92.892L359.918 91.0251L374.208 91.8482L374.86 92.0258L388.823 121.018Z" fill="#CCCCCC"/>
<path d="M390.358 237.822H373.133L372.374 230.022L372.358 229.866L377.235 229.532L389.922 228.666L390.143 233.336L390.315 236.919L390.358 237.822Z" fill="#FFB6B6"/>
<path d="M394.599 128.889L401.835 171.321L395.93 213.075L395.009 219.574L393.384 231.049L392.883 234.578L392.899 234.96L393.023 237.822H372.568L371.814 230.021L371.75 229.322L370.21 213.344L370.183 213.075L366.916 179.192L373.322 154.702L373.795 152.9V152.895L376.582 110.963L374.424 91.9074L374.402 91.7299C374.445 91.7568 374.483 91.7837 374.526 91.8106C374.639 91.8805 374.752 91.9505 374.86 92.0258C387.434 99.9989 394.927 113.987 394.599 128.889Z" fill="#CCCCCC"/>
<path d="M308.881 113.149L301.015 105.018C301.015 105.018 284.177 112.605 283.338 116.814C282.498 121.023 252.768 182.846 252.768 182.846L239.833 148.318L222.996 159.553C222.996 159.553 236.506 213.159 249.14 215.676C261.775 218.192 304.12 152.228 304.12 152.228L308.881 113.149Z" fill="#CCCCCC"/>
<path d="M628.272 212.702H15.721C7.05081 212.702 0 219.756 0 228.421C0 237.087 7.0508 244.134 15.721 244.134H628.272C636.942 244.134 644 237.087 644 228.421C644 219.756 636.942 212.702 628.272 212.702Z" fill="#E6E6E6"/>
<path d="M385.238 164.801L384.047 220.346C383.932 225.723 379.538 230.022 374.157 230.022H271.924C266.671 230.022 262.333 225.917 262.046 220.674L259.008 165.129C258.698 159.465 263.21 154.702 268.886 154.702H375.348C380.894 154.702 385.357 159.259 385.238 164.801Z" fill="#3F3D56"/>
<path d="M220.2 73.7585C233.709 73.7585 244.66 62.8136 244.66 49.3124C244.66 35.8112 233.709 24.8663 220.2 24.8663C206.692 24.8663 195.741 35.8112 195.741 49.3124C195.741 62.8136 206.692 73.7585 220.2 73.7585Z" fill="#FFB6B6"/>
<path d="M179.291 113.277L181.982 142.328L200.284 216.034L184.472 221.572L157.759 141.252L154.069 108.973L179.291 113.277Z" fill="#FFB6B6"/>
<path d="M172.01 164.801L170.819 220.346C170.704 225.723 166.31 230.022 160.929 230.022H58.6966C53.4428 230.022 49.1054 225.917 48.8186 220.674L45.7804 165.129C45.4706 159.465 49.9826 154.702 55.6584 154.702H162.12C167.666 154.702 172.129 159.259 172.01 164.801Z" fill="#3F3D56"/>
<path d="M203.198 230.397C213.866 230.397 222.515 226.574 222.515 221.858C222.515 217.142 213.866 213.318 203.198 213.318C192.53 213.318 183.881 217.142 183.881 221.858C183.881 226.574 192.53 230.397 203.198 230.397Z" fill="#FFB6B6"/>
<path d="M141.341 117.718L152.376 58.9391C152.376 58.9391 183.059 54.6351 184.135 64.8571C185.212 75.079 183.366 125.035 183.366 125.035L141.341 117.718Z" fill="#2B4CFF"/>
<path d="M210.327 53.1561C210.327 53.1561 225.457 47.759 231.84 44.8551C238.222 41.9512 250.902 62.2058 251.184 51.5087C251.466 40.8115 247.084 36.3256 247.084 36.3256C247.084 36.3256 245.99 12.9241 222.401 15.8498C222.401 15.8498 227.59 4.14178 210.558 2.33135C193.526 0.520913 167.029 41.6278 169.402 47.771C171.775 53.9142 174.619 58.9931 167.887 65.5615C161.154 72.13 148.548 109.201 158.139 119.176C167.731 129.151 168.36 133.48 161.789 139.686C155.217 145.892 139.683 159.386 156.479 161.729C173.275 164.072 154.942 162.322 167.464 151.314C179.985 140.305 198.257 140.755 191.435 123.093C184.612 105.432 196.465 80.1226 194.982 76.2831C193.499 72.4435 198.305 48.0625 198.305 48.0625C198.305 48.0625 209.49 46.42 210.327 53.1561Z" fill="#2F2E41"/>
<path d="M335.214 82.673C349.919 82.673 361.84 70.7587 361.84 56.0617C361.84 41.3646 349.919 29.4503 335.214 29.4503C320.509 29.4503 308.588 41.3646 308.588 56.0617C308.588 70.7587 320.509 82.673 335.214 82.673Z" fill="#A0616A"/>
<path d="M337.339 20.2846C336.569 20.7341 335.537 20.054 335.29 19.1972C335.043 18.3405 335.33 17.4308 335.616 16.5861L337.052 12.3334C338.071 9.31725 339.153 6.19575 341.359 3.90009C344.69 0.435174 349.983 -0.446285 354.748 0.192301C360.866 1.01237 366.904 4.32389 369.749 9.79991C372.594 15.2759 371.383 22.9169 366.242 26.3334C373.569 34.7268 376.123 44.0808 375.719 55.2124C375.316 66.3439 363.179 76.5885 355.264 84.4303C353.496 83.3594 351.889 78.3407 352.861 76.5175C353.833 74.6943 352.441 72.5821 353.644 70.9027C354.848 69.2234 355.855 71.8974 354.638 70.2276C353.87 69.1739 356.868 66.7498 355.726 66.1192C350.205 63.0688 348.368 56.1904 344.901 50.9231C340.718 44.5698 333.559 40.2672 325.983 39.5534C321.81 39.1602 317.402 39.8724 313.981 42.2939C310.561 44.7154 308.346 49.0426 309.139 53.1564C307.085 51.0717 306.062 48.0165 306.448 45.1159C306.834 42.2154 308.619 39.5331 311.147 38.057C309.61 32.9769 310.927 27.1333 314.494 23.2022C318.062 19.271 332.534 19.9406 337.742 20.9752L337.339 20.2846Z" fill="#2F2E41"/>
<path d="M338.148 39.7076C345.046 40.4519 350.027 46.4241 354.233 51.9393C356.657 55.1182 359.196 58.6288 359.135 62.6252C359.074 66.6657 356.371 70.1313 355.079 73.9605C352.967 80.2194 355.025 87.6661 360.052 91.9547C355.085 92.8966 349.716 89.1747 348.859 84.1956C347.861 78.3992 352.257 72.8048 351.736 66.9463C351.278 61.7849 347.208 57.8125 343.748 53.9533C340.288 50.0942 337.039 44.9731 338.631 40.0416L338.148 39.7076Z" fill="#2F2E41"/>
<path d="M441.276 216.065C434.443 219.95 430.91 226.622 433.384 230.967C435.858 235.313 443.401 235.686 450.236 231.8C452.987 230.285 455.336 228.133 457.085 225.525L485.827 208.702L477.641 195.389L450.175 213.387C447.037 213.557 443.985 214.475 441.276 216.065Z" fill="#FFB6B6"/>
<path d="M538.593 92.7006C537.734 92.3604 530.198 89.5079 523.317 93.274C515.413 97.6004 514.192 107.476 513.764 110.94C512.775 118.942 515.689 120.736 516.304 128.836C517.455 143.992 520.49 126.702 515.643 133.62C513.966 136.015 496.834 173.122 487.386 180.391C469.01 194.527 457.341 204.482 457.341 204.482L470.662 218.945C470.662 218.945 491.713 213.339 510.318 201.265C529.404 188.879 538.946 182.686 546.329 170.572C546.965 169.528 562.177 143.709 554.007 115.159C552.144 108.647 548.729 96.7153 538.593 92.7006Z" fill="#2B4CFF"/>
<path d="M607.381 164.801L606.19 220.346C606.075 225.723 601.681 230.022 596.3 230.022H494.068C488.814 230.022 484.476 225.917 484.19 220.674L481.151 165.129C480.842 159.465 485.354 154.702 491.029 154.702H597.491C603.037 154.702 607.5 159.259 607.381 164.801Z" fill="#3F3D56"/>
</g>
<defs>
<clipPath id="clip0_19_197">
<rect width="644" height="329" fill="white"/>
</clipPath>
</defs>
</svg>
