<svg width="471" height="369" viewBox="0 0 501 399" fill="none" xmlns="http://www.w3.org/2000/svg">
<g clip-path="url(#clip0_19_550)">
<path d="M440.086 387.184L429.671 387.183L424.716 347.021L440.088 347.022L440.086 387.184Z" fill="#FFB6B6"/>
<path d="M440.452 398.046L408.424 398.044V397.64C408.425 390.757 414.006 385.177 420.89 385.177L426.742 380.74L437.657 385.178L440.453 385.178L440.452 398.046Z" fill="#2F2E41"/>
<path d="M393.912 387.184L383.497 387.183L378.542 347.021L393.914 347.022L393.912 387.184Z" fill="#FFB6B6"/>
<path d="M394.278 398.046L362.25 398.044V397.64C362.251 390.757 367.832 385.177 374.717 385.177L380.568 380.74L391.483 385.178L394.279 385.178L394.278 398.046Z" fill="#2F2E41"/>
<path d="M388.949 163.048L449.038 164.313C449.038 164.313 459.841 182.019 451.593 206.996L452.517 213.952L448.722 224.702L446.824 257.584L448.722 262.643L447.457 272.128C447.457 272.128 452.517 334.73 439.867 366.348L424.686 365.715L418.994 283.224L422.156 277.187L421.524 274.657L413.933 236.716L406.343 256.319V267.211L399.385 275.29C399.385 275.29 401.916 349.907 394.958 365.083H377.962L371.555 263.907L377.88 205.099L376.615 201.305L378.512 199.408L377.247 193.085L388.949 163.048Z" fill="#2F2E41"/>
<path d="M414.566 47.6447L432.909 43.2183L437.969 55.2329C437.969 55.2329 464.149 69.1445 465.414 88.1149C465.414 88.1149 468.962 103.291 465.8 110.247C462.637 117.203 449.354 139.335 449.354 139.335C449.354 139.335 461.372 177.908 458.209 179.805C455.047 181.702 379.777 177.908 379.777 174.114C379.777 170.32 392.304 130.482 392.304 130.482L394.958 62.1887L412.036 55.8652L414.566 47.6447Z" fill="#3F3D56"/>
<path d="M463.467 203.306C459.628 201.372 458.084 196.693 460.018 192.855C460.213 192.469 460.442 192.112 460.689 191.774L450.482 121.813L464.613 122.265L472.005 190.431C474.684 192.702 475.572 196.584 473.922 199.859C471.987 203.697 467.307 205.24 463.467 203.306Z" fill="#FFB6B6"/>
<path d="M329.386 170.287C327.84 166.277 329.839 161.773 333.851 160.227C334.254 160.072 334.664 159.962 335.074 159.876L374.504 101.184L384.671 111.006L344.361 166.478C344.82 169.96 342.871 173.432 339.448 174.751C335.437 176.296 330.932 174.298 329.386 170.287Z" fill="#FFB6B6"/>
<path d="M437.718 104.167C433.725 90.4538 440.357 76.4633 454.642 76.5309C458.771 76.5504 461.979 77.7483 462.868 81.0639C465.98 92.6688 467.677 110.186 467.677 110.186L471.368 128.837L469.132 132.71L473.793 145.209L471.532 151.122L471.044 181.319L459.658 180.686L447.114 157.666L442.317 154.815C442.317 154.815 446.168 117.595 438.507 106.878L437.718 104.167Z" fill="#3F3D56"/>
<path d="M386.72 70.4191C393.378 57.7828 410.422 54.7896 420.65 64.7601C423.606 67.6419 425.081 70.7315 423.417 73.7339C417.591 84.2422 404.086 95.5565 404.086 95.5565L387.455 122.285L383.156 123.518L377.823 135.746L366.395 149.178L351.258 157.159L342.403 148.306L344.283 136.926L367.071 106.571C367.071 106.571 383.467 85.9468 385.404 72.9176L386.72 70.4191Z" fill="#3F3D56"/>
<path d="M418.051 43.9489C418.47 43.9993 418.888 44.0371 419.303 44.056C420.596 44.1269 421.873 44.0532 423.104 43.8446C426.844 43.2453 430.241 41.4745 432.863 38.8776C435.634 36.1375 437.531 32.4801 438.044 28.3165C439.245 18.4884 432.245 9.53578 422.414 8.33491C412.724 7.1443 403.892 13.9196 402.482 23.5221C402.46 23.6707 402.437 23.8131 402.421 23.9611C401.22 33.7954 408.214 42.7425 418.051 43.9489Z" fill="#FFB6B6"/>
<path d="M398.439 22.8642C400.986 24.1232 405.147 20.1651 406.741 22.4424C406.999 21.9503 407.285 21.4743 407.568 21.0242C407.823 20.6215 408.189 19.7618 408.612 19.6145C408.077 20.9059 408.195 22.6549 408.75 24.1534C411.262 25.0917 414.551 23.0146 416.876 20.5578C420.526 16.7055 426.487 26.5839 425.078 31.6962C426.872 29.5063 430.764 30.7414 432.083 33.2453C433.402 35.743 431.174 37.7442 430.698 40.5302L434.294 40.0736C436.562 37.8645 436.404 34.1419 438.272 31.5815C441.393 27.2965 442.602 22.9244 440.256 18.502C438.175 14.5918 437.981 9.53115 434.163 7.27678C435.831 6.46146 429.899 7.7352 431.483 5.07813C433.075 2.42664 424.592 2.10481 424.039 3.52534C421.615 0.625039 419.17 -1.28719 416.188 1.03678C413.259 3.32319 413.562 5.72647 410.123 5.5111C408.509 5.41113 408.686 8.41941 407.727 9.73097C406.773 11.0355 403.065 11.873 402.885 11.7334C401.906 10.9674 398.574 17.4883 398.574 17.4883C398.574 17.4883 395.872 21.5884 398.439 22.8642Z" fill="#2F2E41"/>
<path d="M173.994 136.68C234.251 136.68 283.098 185.515 283.098 245.755C283.098 305.995 234.251 354.829 173.994 354.829C113.738 354.829 30.3454 295.103 64.8905 245.755C99.4355 196.406 113.738 136.68 173.994 136.68Z" fill="#F2F2F2"/>
<path d="M320.022 141.869C319.044 141.869 318.248 142.665 318.248 143.643V200.397C318.248 201.375 319.044 202.17 320.022 202.17C321 202.17 321.796 201.375 321.796 200.397V143.643C321.796 142.665 321 141.869 320.022 141.869Z" fill="#3F3D56"/>
<path d="M21.9821 99.3035C21.0036 99.3035 20.208 100.099 20.208 101.077V115.266C20.208 116.244 21.0036 117.039 21.9821 117.039C22.9605 117.039 23.7561 116.244 23.7561 115.266V101.077C23.7561 100.099 22.9605 99.3035 21.9821 99.3035Z" fill="#3F3D56"/>
<path d="M21.9821 141.869C21.0036 141.869 20.208 142.665 20.208 143.643V171.133C20.208 172.111 21.0036 172.907 21.9821 172.907C22.9605 172.907 23.7561 172.111 23.7561 171.133V143.643C23.7561 142.665 22.9605 141.869 21.9821 141.869Z" fill="#3F3D56"/>
<path d="M21.9821 180.888C21.0036 180.888 20.208 181.683 20.208 182.661V210.151C20.208 211.13 21.0036 211.925 21.9821 211.925C22.9605 211.925 23.7561 211.13 23.7561 210.151V182.661C23.7561 181.683 22.9605 180.888 21.9821 180.888Z" fill="#3F3D56"/>
<path d="M181.091 43.4362C180.112 43.4362 179.316 44.2316 179.316 45.2097V72.7C179.316 73.6782 180.112 74.4736 181.091 74.4736C182.069 74.4736 182.865 73.6782 182.865 72.7V45.2097C182.865 44.2316 182.069 43.4362 181.091 43.4362Z" fill="#3F3D56"/>
<path d="M452.871 383.629C454.704 383.744 455.716 381.468 454.33 380.141L454.192 379.593C454.21 379.549 454.228 379.505 454.247 379.462C456.1 375.044 462.381 375.074 464.218 379.499C465.849 383.425 467.925 387.359 468.437 391.511C468.666 393.344 468.563 395.211 468.156 397.009C471.977 388.664 473.988 379.552 473.988 370.387C473.988 368.085 473.862 365.782 473.604 363.486C473.392 361.607 473.1 359.74 472.722 357.89C470.677 347.889 466.248 338.364 459.86 330.409C456.789 328.73 454.228 326.107 452.682 322.963C452.126 321.829 451.69 320.609 451.484 319.366C451.834 319.412 452.802 314.091 452.538 313.764C453.025 313.025 453.897 312.658 454.429 311.937C457.074 308.352 460.719 308.978 462.622 313.85C466.686 315.901 466.726 319.302 464.232 322.573C462.645 324.654 462.427 327.47 461.035 329.698C461.178 329.882 461.327 330.059 461.47 330.243C464.097 333.611 466.368 337.23 468.283 341.034C467.742 336.807 468.541 331.715 469.903 328.433C471.454 324.693 474.361 321.543 476.92 318.31C479.995 314.427 486.299 316.121 486.841 321.044C486.846 321.092 486.851 321.14 486.856 321.187C486.476 321.402 486.103 321.629 485.74 321.87C483.664 323.242 484.382 326.458 486.84 326.838L486.896 326.846C486.759 328.215 486.524 329.572 486.18 330.907C489.464 343.602 482.375 348.226 472.252 348.434C472.029 348.548 471.811 348.663 471.588 348.771C472.613 351.658 473.433 354.619 474.04 357.621C474.584 360.272 474.962 362.953 475.174 365.645C475.438 369.041 475.415 372.455 475.128 375.846L475.146 375.726C475.873 371.991 477.901 368.503 480.846 366.086C485.233 362.483 491.431 361.157 496.164 358.261C498.442 356.867 501.361 358.668 500.963 361.309L500.944 361.435C500.239 361.722 499.552 362.054 498.887 362.426C498.507 362.641 498.135 362.868 497.771 363.109C495.696 364.481 496.413 367.697 498.872 368.076L498.927 368.085C498.968 368.091 499.002 368.096 499.042 368.102C497.833 370.972 496.149 373.635 494.04 375.932C491.987 387.014 483.169 388.066 473.736 384.838H473.731C472.699 389.329 471.193 393.716 469.256 397.897H453.272C453.214 397.72 453.163 397.536 453.111 397.359C454.589 397.45 456.079 397.365 457.534 397.095C456.348 395.641 455.162 394.174 453.976 392.719C453.948 392.691 453.925 392.662 453.902 392.633C453.3 391.889 452.693 391.15 452.091 390.406L452.091 390.405C452.054 388.119 452.328 385.84 452.871 383.629Z" fill="#F2F2F2"/>
<path d="M0 397.945C0 398.53 0.470149 399 1.05561 399H499.82C500.405 399 500.876 398.53 500.876 397.945C500.876 397.359 500.405 396.889 499.82 396.889H1.05561C0.470149 396.889 0 397.359 0 397.945Z" fill="#CCCCCC"/>
<path d="M126.291 238.402H64.8904V236.629H126.291C131.625 236.629 135.964 232.29 135.964 226.957V185.453H137.738V226.957C137.738 233.268 132.603 238.402 126.291 238.402Z" fill="#2B4CFF"/>
<path d="M243.448 328.371H103.799V330.145H243.448V328.371Z" fill="#2B4CFF"/>
<path d="M332.051 226.543H257.46C253.434 226.543 250.159 223.269 250.159 219.245V145.583C250.159 141.559 253.434 138.285 257.46 138.285H332.051C336.076 138.285 339.351 141.559 339.351 145.583V219.245C339.351 223.269 336.076 226.543 332.051 226.543Z" fill="#E6E6E6"/>
<path d="M271.351 140.46C260.848 140.46 252.334 148.971 252.334 159.471V217.682C252.334 221.375 255.329 224.368 259.023 224.368H304.633C322.606 224.368 337.176 209.803 337.176 191.835V147.146C337.176 143.453 334.181 140.46 330.488 140.46L271.351 140.46Z" fill="white"/>
<path d="M314.733 161.866H274.621C273.856 161.866 273.233 161.244 273.233 160.478C273.233 159.713 273.856 159.091 274.621 159.091H314.733C315.498 159.091 316.121 159.713 316.121 160.478C316.121 161.244 315.498 161.866 314.733 161.866Z" fill="#E6E6E6"/>
<path d="M314.733 191.452H274.621C273.856 191.452 273.233 190.83 273.233 190.065C273.233 189.3 273.856 188.677 274.621 188.677H314.733C315.498 188.677 316.121 189.3 316.121 190.065C316.121 190.83 315.498 191.452 314.733 191.452Z" fill="#E6E6E6"/>
<path d="M331.022 176.669H258.333C257.567 176.669 256.945 176.046 256.945 175.281C256.945 174.516 257.567 173.894 258.333 173.894H331.022C331.787 173.894 332.409 174.516 332.409 175.281C332.409 176.046 331.787 176.669 331.022 176.669Z" fill="#E6E6E6"/>
<path d="M331.764 203.482H305.505C304.739 203.482 304.117 202.86 304.117 202.095C304.117 201.33 304.739 200.707 305.505 200.707H331.764C332.529 200.707 333.151 201.329 333.151 202.095C333.151 202.86 332.529 203.482 331.764 203.482Z" fill="#E6E6E6"/>
<path d="M175.375 373.31H116.144C112.948 373.31 110.347 370.71 110.347 367.514V309.022C110.347 305.827 112.948 303.227 116.144 303.227H175.375C178.571 303.227 181.171 305.827 181.171 309.022V367.514C181.171 370.71 178.571 373.31 175.375 373.31Z" fill="#E6E6E6"/>
<path d="M127.175 304.953C118.835 304.953 112.074 311.712 112.074 320.05V366.273C112.074 369.206 114.452 371.583 117.385 371.583H153.603C167.875 371.583 179.444 360.017 179.444 345.749V310.263C179.444 307.331 177.066 304.954 174.133 304.954L127.175 304.953Z" fill="white"/>
<path d="M161.623 321.952H129.771C129.164 321.952 128.669 321.457 128.669 320.85C128.669 320.242 129.164 319.748 129.771 319.748H161.623C162.231 319.748 162.725 320.242 162.725 320.85C162.725 321.457 162.231 321.952 161.623 321.952Z" fill="#E6E6E6"/>
<path d="M161.623 345.445H129.771C129.164 345.445 128.669 344.951 128.669 344.343C128.669 343.736 129.164 343.242 129.771 343.242H161.623C162.231 343.242 162.725 343.736 162.725 344.343C162.725 344.951 162.231 345.445 161.623 345.445Z" fill="#E6E6E6"/>
<path d="M174.557 333.706H116.837C116.23 333.706 115.735 333.212 115.735 332.604C115.735 331.997 116.23 331.503 116.837 331.503H174.557C175.165 331.503 175.659 331.997 175.659 332.604C175.659 333.212 175.165 333.706 174.557 333.706Z" fill="#E6E6E6"/>
<path d="M175.146 354.998H154.295C153.687 354.998 153.193 354.503 153.193 353.896C153.193 353.288 153.687 352.794 154.295 352.794H175.146C175.754 352.794 176.248 353.288 176.248 353.896C176.248 354.503 175.754 354.998 175.146 354.998Z" fill="#E6E6E6"/>
<path d="M133.976 185.006H90.1725C87.8086 185.006 85.8854 183.083 85.8854 180.72V137.462C85.8854 135.099 87.8085 133.177 90.1724 133.177H133.976C136.34 133.177 138.263 135.099 138.263 137.462V180.72C138.263 183.083 136.34 185.006 133.976 185.006Z" fill="#E6E6E6"/>
<path d="M98.33 134.453C92.1625 134.453 87.1627 139.452 87.1627 145.618V179.802C87.1627 181.971 88.9212 183.729 91.0904 183.729H117.875C128.43 183.729 136.986 175.175 136.986 164.623V138.38C136.986 136.211 135.227 134.453 133.058 134.453L98.33 134.453Z" fill="white"/>
<path d="M123.806 147.024H100.251C99.8012 147.024 99.4355 146.659 99.4355 146.209C99.4355 145.76 99.8012 145.395 100.251 145.395H123.806C124.256 145.395 124.621 145.76 124.621 146.209C124.621 146.659 124.256 147.024 123.806 147.024Z" fill="#E6E6E6"/>
<path d="M123.806 164.399H100.251C99.8012 164.399 99.4355 164.033 99.4355 163.584C99.4355 163.135 99.8012 162.769 100.251 162.769H123.806C124.256 162.769 124.621 163.135 124.621 163.584C124.621 164.033 124.256 164.399 123.806 164.399Z" fill="#E6E6E6"/>
<path d="M133.372 155.717H90.6852C90.2358 155.717 89.8701 155.352 89.8701 154.902C89.8701 154.453 90.2358 154.088 90.6852 154.088H133.372C133.821 154.088 134.186 154.453 134.186 154.902C134.186 155.352 133.821 155.717 133.372 155.717Z" fill="#E6E6E6"/>
<path d="M133.807 171.463H118.387C117.937 171.463 117.572 171.098 117.572 170.648C117.572 170.199 117.937 169.834 118.387 169.834H133.807C134.257 169.834 134.622 170.199 134.622 170.648C134.622 171.098 134.257 171.463 133.807 171.463Z" fill="#E6E6E6"/>
<path d="M261.81 239.547C266.709 239.547 270.68 235.577 270.68 230.679C270.68 225.782 266.709 221.812 261.81 221.812C256.911 221.812 252.939 225.782 252.939 230.679C252.939 235.577 256.911 239.547 261.81 239.547Z" fill="#2B4CFF"/>
<path d="M136.739 194.321C141.638 194.321 145.61 190.351 145.61 185.453C145.61 180.556 141.638 176.585 136.739 176.585C131.84 176.585 127.869 180.556 127.869 185.453C127.869 190.351 131.84 194.321 136.739 194.321Z" fill="#2B4CFF"/>
<path d="M179.316 315.81C184.215 315.81 188.187 311.84 188.187 306.943C188.187 302.045 184.215 298.075 179.316 298.075C174.418 298.075 170.446 302.045 170.446 306.943C170.446 311.84 174.418 315.81 179.316 315.81Z" fill="#2B4CFF"/>
<path d="M198.477 69.9255C204.583 69.9255 209.532 65.0815 209.532 59.1061C209.532 53.1307 204.583 48.2867 198.477 48.2867C192.371 48.2867 187.422 53.1307 187.422 59.1061C187.422 65.0815 192.371 69.9255 198.477 69.9255Z" fill="#F2F2F2"/>
<path d="M287.102 55.4047H227.596C225.555 55.4047 223.894 53.7442 223.894 51.7033C223.894 49.6624 225.555 48.002 227.596 48.002H287.102C289.144 48.002 290.805 49.6624 290.805 51.7033C290.805 53.7442 289.144 55.4047 287.102 55.4047Z" fill="#F2F2F2"/>
<path d="M333.541 67.9324H227.596C225.555 67.9324 223.894 66.2719 223.894 64.231C223.894 62.1902 225.555 60.5297 227.596 60.5297H333.541C335.582 60.5297 337.243 62.1902 337.243 64.231C337.243 66.2719 335.582 67.9324 333.541 67.9324Z" fill="#F2F2F2"/>
<path d="M38.4606 115.397C42.412 115.397 45.6153 112.262 45.6153 108.395C45.6153 104.528 42.412 101.393 38.4606 101.393C34.5091 101.393 31.3058 104.528 31.3058 108.395C31.3058 112.262 34.5091 115.397 38.4606 115.397Z" fill="#F2F2F2"/>
<path d="M95.8174 106H57.306C55.9849 106 54.9099 104.925 54.9099 103.604C54.9099 102.284 55.9849 101.209 57.306 101.209H95.8174C97.1386 101.209 98.2135 102.284 98.2135 103.604C98.2135 104.925 97.1386 106 95.8174 106Z" fill="#F2F2F2"/>
<path d="M125.872 114.108H57.306C55.9849 114.108 54.9099 113.033 54.9099 111.712C54.9099 110.391 55.9849 109.317 57.306 109.317H125.872C127.193 109.317 128.268 110.391 128.268 111.712C128.268 113.033 127.193 114.108 125.872 114.108Z" fill="#F2F2F2"/>
<path d="M253.12 364.584C257.072 364.584 260.275 361.449 260.275 357.581C260.275 353.714 257.072 350.579 253.12 350.579C249.169 350.579 245.965 353.714 245.965 357.581C245.965 361.449 249.169 364.584 253.12 364.584Z" fill="#F2F2F2"/>
<path d="M310.477 355.186H271.966C270.645 355.186 269.57 354.111 269.57 352.79C269.57 351.47 270.645 350.395 271.966 350.395H310.477C311.798 350.395 312.873 351.47 312.873 352.79C312.873 354.111 311.798 355.186 310.477 355.186Z" fill="#F2F2F2"/>
<path d="M340.531 363.294H271.966C270.645 363.294 269.57 362.219 269.57 360.898C269.57 359.577 270.645 358.503 271.966 358.503H340.531C341.853 358.503 342.928 359.577 342.928 360.898C342.928 362.219 341.853 363.294 340.531 363.294Z" fill="#F2F2F2"/>
<path d="M167.12 138.312H165.346V222.556H167.12V138.312Z" fill="#E6E6E6"/>
<path d="M166.233 227.877C169.172 227.877 171.555 225.495 171.555 222.556C171.555 219.618 169.172 217.236 166.233 217.236C163.293 217.236 160.911 219.618 160.911 222.556C160.911 225.495 163.293 227.877 166.233 227.877Z" fill="#E6E6E6"/>
<path d="M246.952 289.065C249.891 289.065 252.274 286.683 252.274 283.744C252.274 280.806 249.891 278.424 246.952 278.424C244.013 278.424 241.63 280.806 241.63 283.744C241.63 286.683 244.013 289.065 246.952 289.065Z" fill="#E6E6E6"/>
<path d="M103.254 216.349C106.193 216.349 108.576 213.967 108.576 211.028C108.576 208.09 106.193 205.708 103.254 205.708C100.315 205.708 97.9319 208.09 97.9319 211.028C97.9319 213.967 100.315 216.349 103.254 216.349Z" fill="#E6E6E6"/>
<path d="M101.287 211.036L72.1815 211.917L72.2352 213.691L101.341 212.81L101.287 211.036Z" fill="#E6E6E6"/>
<path d="M290.248 304.114H246.114V283.744H247.888V302.34H290.248V304.114Z" fill="#E6E6E6"/>
<path d="M101.07 274.447C104.009 274.447 106.392 272.064 106.392 269.126C106.392 266.187 104.009 263.805 101.07 263.805C98.1302 263.805 95.7474 266.187 95.7474 269.126C95.7474 272.064 98.1302 274.447 101.07 274.447Z" fill="#E6E6E6"/>
<path d="M143.841 289.495H99.706V269.126H101.48V287.722H143.841V289.495Z" fill="#E6E6E6"/>
<path d="M278.885 248.88H66.9017V250.654H278.885V248.88Z" fill="#E6E6E6"/>
</g>
<defs>
<clipPath id="clip0_19_550">
<rect width="501" height="399" fill="white"/>
</clipPath>
</defs>
</svg>
